<?xml version="1.0" standalone="no"?>
<!DOCTYPE svg PUBLIC "-//W3C//DTD SVG 20010904//EN"
 "http://www.w3.org/TR/2001/REC-SVG-20010904/DTD/svg10.dtd">
<svg version="1.0" xmlns="http://www.w3.org/2000/svg"
 width="512.000000pt" height="512.000000pt" viewBox="0 0 512.000000 512.000000"
 preserveAspectRatio="xMidYMid meet">

<g transform="translate(0.000000,512.000000) scale(0.100000,-0.100000)"
fill="#000000" stroke="none">
<path d="M105 4591 c-46 -21 -79 -54 -94 -94 -7 -18 -11 -161 -11 -401 0 -366
0 -372 23 -416 60 -119 208 -127 291 -16 20 26 21 43 24 316 l3 289 289 3
c275 3 290 4 317 24 15 11 38 36 51 54 47 69 18 186 -58 233 -34 22 -43 22
-415 25 -353 2 -383 1 -420 -17z"/>
<path d="M4219 4600 c-73 -22 -119 -87 -119 -167 0 -55 24 -101 73 -137 27
-20 42 -21 317 -24 l289 -3 3 -289 c3 -273 4 -290 24 -316 45 -61 113 -89 181
-74 51 12 84 39 111 90 22 44 22 50 22 416 0 240 -4 383 -11 401 -15 40 -48
73 -94 94 -37 17 -70 19 -405 18 -201 0 -377 -4 -391 -9z"/>
<path d="M685 3918 c-3 -7 -4 -623 -3 -1368 l3 -1355 168 -3 167 -2 0 1370 0
1370 -165 0 c-123 0 -167 -3 -170 -12z"/>
<path d="M1370 2905 l0 -1025 170 0 170 0 -2 1023 -3 1022 -167 3 -168 2 0
-1025z"/>
<path d="M2050 2905 l0 -1025 170 0 170 0 -2 1023 -3 1022 -167 3 -168 2 0
-1025z"/>
<path d="M2735 3918 c-3 -7 -4 -623 -3 -1368 l3 -1355 168 -3 167 -2 0 1370 0
1370 -165 0 c-123 0 -167 -3 -170 -12z"/>
<path d="M3417 3923 c-4 -3 -7 -465 -7 -1025 l0 -1018 170 0 170 0 0 1025 0
1025 -163 0 c-90 0 -167 -3 -170 -7z"/>
<path d="M4100 2560 l0 -1370 168 2 167 3 0 1365 0 1365 -167 3 -168 2 0
-1370z"/>
<path d="M131 1530 c-48 -11 -83 -40 -108 -90 -23 -44 -23 -50 -23 -417 0
-410 1 -417 59 -466 55 -46 80 -49 476 -45 361 3 371 4 405 25 76 47 105 164
58 233 -13 18 -36 43 -51 54 -27 20 -42 21 -318 24 l-289 3 0 274 c0 170 -4
284 -11 302 -28 76 -116 121 -198 103z"/>
<path d="M1370 1365 l0 -175 168 2 167 3 0 170 0 170 -167 3 -168 2 0 -175z"/>
<path d="M2050 1365 l0 -175 168 2 167 3 3 173 2 172 -170 0 -170 0 0 -175z"/>
<path d="M3414 1527 c-2 -7 -3 -85 -2 -172 l3 -160 168 -3 167 -2 0 175 0 175
-165 0 c-126 0 -167 -3 -171 -13z"/>
<path d="M4911 1530 c-39 -9 -76 -35 -105 -74 -20 -26 -21 -43 -24 -316 l-3
-289 -289 -3 c-275 -3 -290 -4 -317 -24 -15 -11 -38 -36 -50 -54 -48 -69 -19
-186 57 -233 34 -21 44 -22 405 -25 396 -4 421 -1 476 45 58 49 59 57 59 463
0 391 -2 413 -48 463 -36 40 -103 60 -161 47z"/>
</g>
</svg>
